<?xml version="1.0" standalone="no"?>
<!DOCTYPE svg PUBLIC "-//W3C//DTD SVG 20010904//EN"
 "http://www.w3.org/TR/2001/REC-SVG-20010904/DTD/svg10.dtd">
<svg version="1.0" xmlns="http://www.w3.org/2000/svg"
 width="512.000000pt" height="512.000000pt" viewBox="0 0 512.000000 512.000000"
 preserveAspectRatio="xMidYMid meet">

<g transform="translate(0.000000,512.000000) scale(0.100000,-0.100000)"
fill="#000000" stroke="none">
<path d="M2534 4860 c-41 -16 -54 -49 -54 -132 l0 -78 -74 0 c-90 0 -126 -21
-126 -75 0 -60 25 -77 118 -83 l82 -5 0 -148 0 -149 -557 -506 c-307 -279
-563 -519 -570 -533 -13 -29 -17 -376 -5 -445 9 -49 48 -82 87 -72 14 4 46 25
71 48 l44 41 0 -1157 0 -1156 -540 0 -540 0 0 800 c0 440 1 800 3 800 23 0
887 326 901 339 29 29 25 79 -8 108 -15 12 -33 23 -40 23 -20 0 -1167 -419
-1192 -435 -30 -19 -38 -59 -19 -95 21 -41 55 -47 132 -22 l63 20 0 -768 0
-768 -136 -4 c-129 -3 -137 -4 -155 -27 -33 -41 -21 -93 28 -119 31 -17 4995
-17 5026 0 49 26 61 78 28 119 -18 23 -26 24 -155 27 l-136 4 0 768 0 768 63
-20 c79 -26 112 -20 133 25 22 47 6 83 -48 107 -67 29 -1149 420 -1164 420 -7
0 -25 -11 -40 -23 -33 -29 -37 -79 -8 -107 10 -11 210 -89 444 -174 234 -85
433 -157 443 -161 16 -7 17 -54 17 -806 l0 -799 -540 0 -540 0 0 1156 0 1157
44 -41 c25 -23 56 -44 70 -48 32 -8 73 17 86 52 6 14 10 118 10 232 0 178 -2
211 -18 239 -9 17 -266 257 -569 533 l-553 501 0 148 0 148 82 5 c93 6 118 23
118 83 0 54 -36 75 -126 75 l-74 0 0 79 c0 69 -3 83 -22 105 -27 29 -55 38
-84 26z m561 -1293 l525 -477 0 -101 0 -101 -43 39 c-24 21 -252 227 -505 458
-254 231 -473 424 -487 429 -16 6 -34 6 -50 0 -13 -5 -234 -200 -491 -434
-257 -234 -484 -440 -505 -458 l-39 -34 0 101 0 100 528 480 c290 264 530 479
534 478 4 -1 244 -217 533 -480z m-104 -318 l419 -382 0 -1228 0 -1229 -180 0
-180 0 0 400 c0 252 -4 419 -11 452 -41 196 -210 352 -414 381 -248 36 -493
-136 -544 -381 -7 -33 -11 -200 -11 -452 l0 -400 -180 0 -180 0 0 1228 0 1228
418 381 c229 210 423 382 430 382 7 1 202 -171 433 -380z m-511 -2304 l0 -535
-130 0 -130 0 0 380 c0 391 5 450 42 523 37 73 151 166 206 167 9 0 12 -114
12 -535z m227 515 c51 -23 124 -94 151 -147 36 -70 42 -143 42 -530 l0 -373
-130 0 -130 0 0 535 c0 421 3 535 13 535 6 0 31 -9 54 -20z"/>
<path d="M2300 2911 c-97 -32 -175 -106 -211 -200 -16 -44 -20 -71 -17 -126 8
-113 34 -152 245 -366 102 -103 198 -193 214 -199 23 -10 35 -10 58 0 16 6
112 96 214 199 211 214 237 253 245 366 7 125 -60 244 -172 303 -44 23 -63 27
-141 27 -68 0 -101 -5 -133 -19 -42 -19 -44 -19 -80 -1 -41 20 -180 30 -222
16z m146 -156 c19 -8 47 -24 61 -35 35 -28 70 -25 122 10 24 16 58 32 76 36
108 20 211 -89 186 -198 -12 -51 -31 -74 -191 -233 l-141 -140 -158 160 c-131
132 -161 168 -170 203 -35 130 93 248 215 197z"/>
<path d="M938 1846 c-91 -25 -169 -97 -200 -184 -10 -28 -13 -125 -13 -389 l0
-352 23 -23 c22 -22 29 -23 230 -26 228 -4 264 0 293 29 18 18 19 36 19 377
l0 359 -31 61 c-60 122 -195 184 -321 148z m138 -165 c60 -37 64 -58 64 -370
l0 -281 -130 0 -130 0 0 285 c0 316 2 328 63 365 40 25 93 25 133 1z"/>
<path d="M4040 1847 c-91 -26 -148 -75 -189 -167 -19 -43 -21 -65 -21 -402 0
-341 1 -359 19 -377 29 -29 65 -33 293 -29 201 3 208 4 230 26 l23 23 0 357
c0 342 -1 359 -21 403 -60 130 -205 202 -334 166z m131 -162 c16 -9 39 -30 49
-48 19 -30 20 -52 20 -319 l0 -288 -130 0 -130 0 0 280 c0 312 4 334 62 370
39 24 88 26 129 5z"/>
</g>
</svg>
