<?xml version="1.0" standalone="no"?>
<!DOCTYPE svg PUBLIC "-//W3C//DTD SVG 20010904//EN"
 "http://www.w3.org/TR/2001/REC-SVG-20010904/DTD/svg10.dtd">
<svg version="1.0" xmlns="http://www.w3.org/2000/svg"
 width="512.000000pt" height="512.000000pt" viewBox="0 0 512.000000 512.000000"
 preserveAspectRatio="xMidYMid meet">

<g transform="translate(0.000000,512.000000) scale(0.100000,-0.100000)"
fill="#000000" stroke="none">
<path d="M2388 5105 c-193 -37 -354 -123 -498 -265 -165 -163 -245 -324 -285
-572 l-6 -36 -172 -4 c-201 -4 -231 -13 -322 -99 -101 -95 -124 -180 -125
-446 l0 -153 -333 0 c-370 0 -396 -3 -484 -63 -66 -46 -120 -119 -143 -197
-20 -64 -20 -91 -18 -1617 3 -1549 3 -1552 24 -1579 11 -15 33 -37 48 -48 l27
-21 2459 0 2459 0 27 21 c15 11 37 33 48 48 21 27 21 30 24 1579 2 1526 2
1553 -18 1617 -23 78 -77 151 -143 197 -82 56 -125 63 -368 63 l-218 0 -20
-26 c-34 -43 -26 -86 20 -109 22 -12 72 -15 231 -15 l204 0 54 -32 c42 -26 61
-45 82 -87 l28 -53 0 -1529 0 -1529 -420 0 -420 0 0 149 0 150 219 3 c241 3
245 4 295 72 20 26 21 41 21 266 0 225 -1 240 -21 266 -50 68 -54 69 -295 72
l-219 3 0 144 0 143 213 4 c200 3 214 4 249 26 21 13 45 40 57 66 19 39 21 60
21 255 0 239 -7 269 -73 310 -32 20 -48 21 -251 21 l-216 0 0 149 0 150 213 3
c204 3 214 4 251 27 68 43 76 73 76 321 0 207 -1 216 -23 253 -45 74 -55 77
-299 77 l-218 0 0 413 c0 455 -2 476 -62 569 -37 58 -83 100 -151 135 -50 27
-59 28 -224 31 l-172 4 -6 36 c-38 239 -117 401 -270 558 -134 137 -272 218
-454 265 -101 27 -298 34 -403 14z m340 -155 c240 -49 449 -212 558 -437 196
-401 30 -882 -373 -1079 -549 -270 -1193 155 -1159 766 7 130 25 199 81 315
80 164 207 291 370 370 172 84 336 104 523 65z m-1124 -892 c53 -280 118 -412
286 -578 133 -132 274 -211 456 -257 95 -24 333 -24 428 0 185 46 324 125 461
262 166 166 227 291 281 573 l5 23 159 -3 c158 -3 159 -3 201 -33 27 -19 54
-50 71 -84 l28 -53 0 -1879 0 -1879 -300 0 -300 0 0 658 0 658 43 11 c23 7 55
25 72 43 30 31 30 32 33 163 3 151 -8 186 -69 219 -32 17 -80 18 -899 18 -819
0 -867 -1 -899 -18 -61 -33 -72 -68 -69 -219 3 -124 4 -133 28 -158 30 -32 71
-55 100 -55 20 0 20 -4 20 -274 0 -151 3 -282 6 -291 10 -26 63 -45 93 -34 49
19 50 25 51 322 l0 277 295 0 295 0 0 -660 0 -660 -295 0 -295 0 0 232 c0 224
-1 232 -22 255 -28 30 -80 31 -108 1 -19 -21 -20 -34 -20 -255 l0 -233 -300 0
-300 0 0 1885 c0 1836 1 1887 19 1923 11 20 32 49 48 63 57 53 77 58 240 59
150 0 153 0 157 -22z m-624 -828 l0 -150 -211 0 c-198 0 -214 -1 -246 -21 -66
-41 -73 -71 -73 -311 0 -245 8 -276 76 -319 37 -23 48 -24 247 -27 l207 -3 0
-150 0 -149 -211 0 c-198 0 -214 -1 -246 -21 -66 -41 -73 -71 -73 -310 0 -195
2 -216 21 -255 12 -26 36 -53 57 -66 35 -22 49 -23 245 -27 l207 -3 0 -143 0
-144 -214 -3 c-235 -3 -240 -4 -290 -72 -20 -26 -21 -41 -21 -266 0 -225 1
-240 21 -266 50 -68 55 -69 290 -72 l214 -3 0 -150 0 -149 -415 0 -415 0 0
1529 0 1529 28 53 c21 42 40 61 82 87 l54 32 333 0 333 0 0 -150z m0 -490 l0
-190 -187 2 -188 3 -3 188 -2 187 190 0 190 0 0 -190z m3538 3 l-3 -188 -192
-3 -193 -2 0 190 0 190 195 0 195 0 -2 -187z m-3538 -983 l0 -190 -187 2 -188
3 -3 188 -2 187 190 0 190 0 0 -190z m3538 3 l-3 -188 -192 -3 -193 -2 0 190
0 190 195 0 195 0 -2 -187z m-1138 -68 l0 -75 -820 0 -820 0 0 75 0 75 820 0
820 0 0 -75z m-150 -885 l0 -660 -295 0 -295 0 0 660 0 660 295 0 295 0 0
-660z m-2250 -20 l0 -190 -190 0 -190 0 0 190 0 190 190 0 190 0 0 -190z
m3540 0 l0 -190 -195 0 -195 0 0 190 0 190 195 0 195 0 0 -190z"/>
<path d="M2414 4806 c-17 -8 -42 -29 -55 -47 -22 -32 -24 -44 -28 -206 l-3
-173 -170 0 c-158 0 -172 -2 -200 -21 -46 -33 -58 -74 -58 -199 0 -127 12
-166 61 -201 32 -23 44 -24 200 -27 l167 -4 4 -167 c3 -156 5 -169 27 -200 35
-49 74 -61 201 -61 127 0 166 12 201 61 22 31 24 44 27 200 l4 167 167 4 c156
3 168 4 200 27 49 35 61 74 61 201 0 125 -12 166 -58 199 -28 19 -42 21 -200
21 l-170 0 -3 173 c-4 162 -6 174 -28 206 -13 18 -39 40 -57 47 -45 19 -247
18 -290 0z m217 -298 c0 -180 9 -220 52 -252 26 -19 44 -21 208 -24 l179 -4 0
-74 0 -74 -184 0 c-170 0 -185 -2 -209 -20 -38 -30 -47 -77 -47 -252 l0 -158
-70 0 -70 0 0 158 c0 175 -9 222 -47 252 -24 18 -39 20 -209 20 l-184 0 0 74
0 74 179 4 c257 4 260 7 260 276 l1 162 70 0 70 0 1 -162z"/>
<path d="M1514 2875 c-70 -42 -74 -61 -74 -320 0 -258 3 -271 79 -313 40 -23
42 -23 415 -20 360 3 376 4 402 24 15 11 37 33 48 48 20 26 21 41 21 266 0
225 -1 240 -21 266 -11 15 -33 37 -48 48 -26 20 -41 21 -404 24 l-377 2 -41
-25z m746 -315 l0 -190 -335 0 -335 0 0 190 0 190 335 0 335 0 0 -190z"/>
<path d="M2805 2886 c-41 -18 -83 -69 -90 -109 -4 -18 -5 -127 -3 -244 3 -232
5 -237 72 -287 27 -20 39 -21 411 -21 372 0 384 1 411 21 68 50 69 53 72 305
3 220 2 231 -19 268 -12 21 -38 48 -59 60 -37 20 -49 21 -401 21 -280 -1 -371
-4 -394 -14z m725 -326 l0 -190 -335 0 -335 0 0 190 0 190 335 0 335 0 0 -190z"/>
<path d="M2218 949 c-36 -20 -50 -164 -25 -239 14 -41 52 -59 95 -44 34 12 51
57 51 139 1 75 -14 132 -39 145 -24 13 -60 12 -82 -1z"/>
<path d="M2818 949 c-36 -20 -50 -164 -25 -239 14 -41 52 -59 95 -44 34 12 51
57 51 139 1 75 -14 132 -39 145 -24 13 -60 12 -82 -1z"/>
</g>
</svg>
