<?xml version="1.0" standalone="no"?>
<!DOCTYPE svg PUBLIC "-//W3C//DTD SVG 20010904//EN"
 "http://www.w3.org/TR/2001/REC-SVG-20010904/DTD/svg10.dtd">
<svg version="1.0" xmlns="http://www.w3.org/2000/svg"
 width="512.000000pt" height="512.000000pt" viewBox="0 0 512.000000 512.000000"
 preserveAspectRatio="xMidYMid meet">

<g transform="translate(0.000000,512.000000) scale(0.100000,-0.100000)"
fill="#000000" stroke="none">
<path d="M2517 4838 c-28 -28 -203 -341 -229 -411 -29 -75 -34 -187 -13 -267
9 -36 18 -71 18 -78 1 -8 -32 -27 -83 -46 -195 -75 -338 -164 -479 -300 -118
-115 -180 -197 -236 -311 -63 -132 -80 -205 -79 -360 0 -152 19 -237 84 -365
22 -44 40 -82 40 -85 0 -3 -38 -5 -85 -5 -124 0 -125 -1 -125 -185 l0 -145
-155 0 -155 0 0 225 0 225 95 0 c142 0 135 -15 135 278 0 296 12 276 -164 280
l-122 4 28 81 c42 125 35 234 -22 347 -12 25 -78 101 -146 170 l-123 125 -3
136 c-3 118 -6 140 -22 158 -23 25 -63 27 -94 5 -21 -14 -22 -22 -22 -151 l0
-137 -128 -130 c-139 -142 -170 -191 -192 -303 -17 -87 -3 -176 44 -285 7 -15
-5 -17 -119 -20 -176 -4 -165 14 -165 -282 0 -230 0 -233 23 -254 20 -19 35
-22 115 -22 l92 0 2 -1215 c3 -1150 4 -1215 21 -1232 17 -17 123 -18 2307 -18
2184 0 2290 1 2307 18 17 17 18 82 21 1232 l2 1215 93 0 c142 0 137 -10 137
277 0 295 11 277 -165 281 -114 3 -126 5 -119 20 47 109 61 198 44 285 -22
112 -53 161 -192 303 l-128 130 0 137 c0 129 -1 137 -22 151 -31 22 -71 20
-94 -5 -16 -18 -19 -40 -22 -158 l-3 -136 -123 -125 c-68 -69 -134 -145 -146
-170 -63 -124 -65 -255 -7 -392 l15 -36 -123 -4 c-177 -4 -165 16 -165 -280 0
-293 -7 -278 135 -278 l95 0 0 -225 0 -225 -155 0 -155 0 0 145 c0 184 -1 185
-125 185 -47 0 -85 2 -85 5 0 3 18 42 41 86 62 125 82 210 83 364 0 155 -16
228 -79 360 -56 114 -118 196 -236 311 -141 136 -301 236 -488 305 -46 16 -75
33 -74 41 0 7 9 42 18 78 21 80 16 192 -13 267 -26 70 -201 383 -229 411 -12
12 -31 22 -43 22 -11 0 -31 -10 -43 -22z m115 -321 c72 -133 88 -178 88 -248
0 -46 -25 -149 -37 -149 -3 0 -32 10 -65 21 l-58 22 -56 -22 c-31 -11 -60 -21
-65 -21 -13 0 -39 98 -39 149 0 25 5 64 11 86 11 39 139 285 149 285 3 0 35
-55 72 -123z m120 -573 c101 -36 219 -84 263 -107 211 -110 420 -317 494 -491
62 -142 74 -330 32 -466 -27 -89 -61 -158 -108 -222 l-35 -48 -838 0 -838 0
-36 49 c-138 188 -171 437 -86 657 72 190 276 401 499 518 69 36 430 175 458
176 7 0 95 -30 195 -66z m-1887 -339 c22 -75 16 -137 -23 -235 l-30 -75 -185
-3 -185 -2 -33 82 c-25 62 -34 99 -34 143 0 101 24 146 144 268 l106 108 112
-114 c100 -102 113 -120 128 -172z m3857 31 c34 -79 31 -161 -11 -264 l-33
-82 -186 2 -185 3 -33 85 c-38 96 -42 150 -18 231 14 47 31 69 127 167 l111
112 103 -102 c71 -70 109 -117 125 -152z m-3612 -626 l0 -140 -485 0 -485 0 0
140 0 140 485 0 485 0 0 -140z m3870 0 l0 -140 -485 0 -485 0 0 140 0 140 485
0 485 0 0 -140z m-4100 -1445 l0 -1165 -255 0 -255 0 0 1165 0 1165 255 0 255
0 0 -1165z m3870 0 l0 -1165 -255 0 -255 0 0 1165 0 1165 255 0 255 0 0 -1165z
m-1100 810 l0 -95 -1090 0 -1090 0 0 95 0 95 1090 0 1090 0 0 -95z m450 -1105
l0 -870 -64 0 -65 0 -3 317 c-4 298 -6 322 -26 377 -34 91 -73 144 -191 259
-144 141 -140 140 -280 9 -117 -108 -171 -184 -203 -281 -19 -60 -21 -95 -26
-373 l-4 -308 -89 0 -88 0 -3 463 c-5 516 -4 513 -78 662 -21 44 -58 103 -81
130 -61 74 -300 295 -327 301 -29 8 -44 -3 -189 -139 -153 -143 -194 -192
-243 -292 -74 -149 -73 -146 -78 -662 l-3 -463 -88 0 -89 0 -4 308 c-5 278 -7
313 -26 373 -32 97 -86 173 -203 281 -141 132 -136 132 -282 -11 -203 -198
-217 -242 -217 -663 l0 -288 -65 0 -65 0 0 870 0 870 1540 0 1540 0 0 -870z
m-1434 423 c122 -113 183 -198 221 -303 l27 -75 4 -457 3 -458 -361 0 -361 0
3 458 c3 449 4 458 26 522 41 115 80 169 206 292 67 65 122 118 124 118 2 0
51 -44 108 -97z m-969 -602 l28 -56 3 -317 3 -318 -221 0 -221 0 3 308 3 307
32 68 c24 50 52 86 110 142 l78 74 77 -76 c45 -45 88 -98 105 -132z m2037 85
c15 -17 42 -60 60 -96 l31 -65 3 -307 3 -308 -221 0 -221 0 3 317 c4 378 1
367 130 499 l81 84 51 -46 c28 -26 64 -60 80 -78z"/>
<path d="M2719 3730 c-22 -13 -31 -52 -20 -82 6 -17 32 -33 87 -57 125 -54
232 -131 332 -236 96 -103 122 -115 162 -75 34 34 26 72 -28 137 -105 126
-239 228 -382 290 -76 33 -122 40 -151 23z"/>
</g>
</svg>
