<?xml version="1.0" standalone="no"?>
<!DOCTYPE svg PUBLIC "-//W3C//DTD SVG 20010904//EN"
 "http://www.w3.org/TR/2001/REC-SVG-20010904/DTD/svg10.dtd">
<svg version="1.0" xmlns="http://www.w3.org/2000/svg"
 width="512.000000pt" height="512.000000pt" viewBox="0 0 512.000000 512.000000"
 preserveAspectRatio="xMidYMid meet">

<g transform="translate(0.000000,512.000000) scale(0.100000,-0.100000)"
fill="#000000" stroke="none">
<path d="M3835 5102 c-67 -22 -145 -100 -168 -166 -15 -43 -17 -102 -17 -450
l0 -400 -442 440 c-409 406 -448 443 -508 469 -96 43 -189 42 -285 -3 -63 -30
-96 -59 -348 -310 l-277 -277 0 -43 c0 -59 41 -102 96 -102 35 0 51 13 313
274 242 240 282 275 321 286 95 25 20 94 1238 -1123 612 -612 1122 -1126 1133
-1143 96 -155 -69 -349 -239 -279 -26 11 -334 312 -1042 1020 l-1005 1005 -45
0 -45 0 -1005 -1005 c-708 -708 -1016 -1009 -1042 -1020 -157 -65 -318 96
-253 253 11 25 189 211 575 597 543 544 560 562 560 599 0 55 -43 96 -102 96
l-43 0 -563 -562 c-531 -531 -565 -567 -600 -637 -35 -71 -37 -80 -37 -171 0
-87 3 -101 32 -160 41 -85 111 -155 193 -194 59 -28 74 -31 160 -31 111 1 181
23 247 80 23 19 44 35 47 35 3 0 7 -415 8 -923 l3 -923 38 -76 c62 -126 179
-218 315 -247 69 -14 2944 -16 3021 -1 132 25 256 121 318 248 l38 76 3 923
c1 508 4 923 7 923 3 0 28 -18 57 -40 266 -203 652 9 625 342 -12 138 -27 159
-349 483 l-287 290 -3 825 -3 825 -23 47 c-34 68 -108 133 -173 152 -76 23
-374 22 -444 -2z m412 -206 l28 -24 3 -709 2 -708 -215 215 -215 215 0 493 0
493 25 24 c24 24 28 25 184 25 155 0 161 -1 188 -24z m-850 -1668 l833 -833 0
-1001 0 -1000 -27 -55 c-31 -60 -92 -112 -151 -129 -51 -14 -2933 -14 -2984 0
-59 17 -120 69 -151 129 l-27 55 0 1000 0 1001 832 832 c458 458 835 833 838
833 3 0 380 -375 837 -832z"/>
<path d="M1825 2825 c-335 -62 -581 -366 -602 -747 -13 -226 57 -441 196 -604
102 -120 1090 -1062 1120 -1069 15 -3 39 -2 53 4 34 13 1085 1028 1138 1099
326 439 156 1114 -325 1288 -238 86 -533 33 -739 -134 -32 -26 -69 -56 -82
-66 -24 -20 -24 -20 -48 0 -13 10 -50 40 -82 67 -174 141 -413 202 -629 162z
m296 -211 c87 -26 179 -79 264 -154 153 -135 197 -135 350 0 166 146 348 203
525 166 109 -23 175 -59 256 -140 84 -84 145 -198 170 -316 33 -156 3 -347
-77 -481 -45 -76 -59 -92 -277 -303 l-196 -190 -16 55 c-25 81 -57 137 -112
195 l-50 53 15 39 c28 70 37 149 27 225 -35 247 -268 421 -510 379 -282 -48
-448 -341 -343 -604 l15 -39 -50 -53 c-55 -58 -87 -114 -112 -196 l-16 -54
-179 173 c-216 208 -246 240 -290 311 -82 134 -115 331 -81 490 25 118 86 232
170 316 79 78 146 116 247 139 75 17 190 12 270 -11z m517 -678 c157 -56 217
-249 118 -379 -97 -128 -295 -128 -392 0 -144 189 51 457 274 379z m-306 -616
c126 -78 313 -78 450 -2 l47 26 26 -24 c53 -49 78 -116 82 -220 l4 -95 -186
-177 c-102 -98 -190 -178 -195 -178 -5 0 -92 80 -195 178 l-186 177 4 95 c4
102 24 158 75 213 31 32 33 33 74 7z"/>
<path d="M1499 4111 c-47 -47 -36 -121 23 -155 78 -47 173 40 138 125 -26 62
-112 78 -161 30z"/>
</g>
</svg>
